<svg width="151" height="80" viewBox="0 0 151 80" fill="none" xmlns="http://www.w3.org/2000/svg">
<g clip-path="url(#clip0_1648_5653)">
<path d="M75.4999 1.12988C54.0699 1.12988 36.6299 18.5699 36.6299 39.9999C36.6299 49.4899 40.0499 58.1899 45.7299 64.9499C46.0499 65.3299 46.3799 65.7099 46.7099 66.0799C47.1099 66.5199 47.5099 66.9399 47.9299 67.3599C48.2799 67.7199 48.6499 68.0599 49.0099 68.3999C49.3899 68.7599 49.7799 69.0999 50.1799 69.4399C50.5599 69.7699 50.9499 70.0899 51.3399 70.3999C57.9799 75.6799 66.3699 78.8499 75.4899 78.8499C96.9199 78.8499 114.36 61.4099 114.36 39.9799C114.36 18.5499 96.9299 1.12988 75.4999 1.12988ZM75.4999 77.3599C66.8099 77.3599 58.8099 74.3699 52.4599 69.3799L64.0599 58.6199C64.3599 58.3399 64.3799 57.8599 64.0999 57.5599C63.8199 57.2599 63.3399 57.2399 63.0399 57.5199L51.2899 68.4199C50.8899 68.0799 50.4999 67.7299 50.1099 67.3699L64.6499 53.7099C64.9499 53.4299 64.9699 52.9499 64.6799 52.6499C64.3999 52.3499 63.9199 52.3299 63.6199 52.6199L49.0199 66.3399C48.6099 65.9199 48.1999 65.4999 47.8099 65.0699L59.3999 54.3399C59.6999 54.0599 59.7199 53.5799 59.4399 53.2799C59.1599 52.9799 58.6799 52.9599 58.3799 53.2399L46.8299 63.9399C41.4099 57.4499 38.1299 49.1099 38.1299 40.0099C38.1299 19.3999 54.8999 2.62988 75.4999 2.62988C96.0999 2.62988 112.87 19.3899 112.87 39.9999C112.87 60.6099 96.1099 77.3699 75.4999 77.3699V77.3599ZM92.7999 24.7099C81.4299 23.2399 70.5499 36.4899 70.5499 36.4899L64.6199 37.9599L60.6399 43.0899L66.1799 44.7499C66.1799 44.8799 66.1599 45.0099 66.1599 45.1499C66.1599 46.2499 66.4899 47.2699 67.0499 48.1199L65.0999 50.0899L67.3099 52.2999L69.4499 50.1399C70.1099 50.4299 70.8499 50.5899 71.6199 50.5899C72.0899 50.5899 72.5499 50.5199 72.9899 50.4099L74.6799 56.2399L79.5599 52.1399L81.0299 46.3299C81.0299 46.3299 94.2799 36.0699 92.8099 24.6999L92.7999 24.7099ZM79.5999 40.8399C77.7599 40.8399 76.2599 39.3499 76.2599 37.4999C76.2599 35.6499 77.7499 34.1599 79.5999 34.1599C81.4499 34.1599 82.9399 35.6499 82.9399 37.4999C82.9399 39.3499 81.4499 40.8399 79.5999 40.8399Z" fill="black"/>
</g>
<defs>
<clipPath id="clip0_1648_5653">
<rect width="150" height="80" fill="white" transform="translate(0.5)"/>
</clipPath>
</defs>
</svg>
